<?xml version="1.0" encoding="utf-8"?>
<!-- Generator: Adobe Illustrator 25.0.0, SVG Export Plug-In . SVG Version: 6.00 Build 0)  -->
<svg version="1.1" id="Layer_1" xmlns="http://www.w3.org/2000/svg" xmlns:xlink="http://www.w3.org/1999/xlink" x="0px" y="0px"
	 width="128px" height="128px" viewBox="0 0 128 128" style="enable-background:new 0 0 128 128;" xml:space="preserve">
<style type="text/css">
	.st0{fill:#017FFF;}
	.st1{fill:#F9F9F9;}
	.st2{fill-rule:evenodd;clip-rule:evenodd;fill:#F9F9F9;}
</style>
<g>
	<rect class="st0" width="128" height="128"/>
	<g>
		<path class="st1" d="M58.4,73.1l14.7-14.7c1-1,1-2.5,0-3.5c-1-1-2.5-1-3.5,0L54.9,69.6c-1,1-1,2.5,0,3.5
			C55.9,74,57.4,74,58.4,73.1z"/>
		<path class="st1" d="M57.9,59.1c2,0,3.7-1.6,3.7-3.7s-1.6-3.7-3.7-3.7c-2,0-3.7,1.6-3.7,3.7S55.8,59.1,57.9,59.1z"/>
		<path class="st1" d="M73.8,72.6c0,2-1.6,3.7-3.7,3.7s-3.7-1.6-3.7-3.7c0-2,1.6-3.7,3.7-3.7S73.8,70.6,73.8,72.6z"/>
		<path class="st2" d="M37,41.9c-1.4,0-2.5,1.1-2.5,2.5v12.3c0,1.4,1.1,2.5,2.5,2.5c2.8,0,4.9,2.1,4.9,4.9s-2.1,4.9-4.9,4.9
			c-1.4,0-2.5,1.1-2.5,2.5v12.3c0,1.4,1.1,2.5,2.5,2.5h54c1.4,0,2.5-1.1,2.5-2.5V71.4c0-1.4-1.1-2.5-2.5-2.5c-2.8,0-4.9-2.1-4.9-4.9
			s2.1-4.9,4.9-4.9c1.4,0,2.5-1.1,2.5-2.5V44.4c0-1.4-1.1-2.5-2.5-2.5H37z M39.5,54.5v-7.7h49v7.7c-4.3,1.1-7.4,4.8-7.4,9.5
			s3.1,8.5,7.4,9.5v7.7h-49v-7.7c4.3-1.1,7.4-4.8,7.4-9.5S43.8,55.5,39.5,54.5z"/>
	</g>
</g>
</svg>
