<?xml version="1.0" encoding="utf-8"?>
<!-- Generator: Adobe Illustrator 24.0.0, SVG Export Plug-In . SVG Version: 6.00 Build 0)  -->
<svg version="1.1" id="Layer_1" xmlns="http://www.w3.org/2000/svg" xmlns:xlink="http://www.w3.org/1999/xlink" x="0px" y="0px"
	 viewBox="0 0 118.2 119.1" style="enable-background:new 0 0 118.2 119.1;" xml:space="preserve">
<style type="text/css">
	.st0{fill:#FFFFFF;filter:url(#Adobe_OpacityMaskFilter);}
	.st1{mask:url(#mask0_1329:61134_1_);}
	.st2{opacity:1.000000e-02;fill:#FFFFFF;enable-background:new    ;}
	.st3{fill-rule:evenodd;clip-rule:evenodd;fill:#1A1F71;}
	.st4{fill:#FF5F00;}
	.st5{fill:#EB001B;}
	.st6{fill:#F79E1B;}
	.st7{fill:#FFFFFF;}
	.st8{fill:url(#SVGID_1_);}
	.st9{fill:url(#SVGID_2_);}
	.st10{fill:url(#SVGID_3_);}
	.st11{fill:url(#SVGID_4_);}
	.st12{fill:url(#SVGID_5_);}
	.st13{fill:#FFFFFF;filter:url(#Adobe_OpacityMaskFilter_1_);}
	.st14{mask:url(#mask0_2_);}
	.st15{fill:#A50064;}
	.st16{fill:#0068FF;}
	.st17{fill:#B3B3B3;}
	.st18{fill:#39B54A;}
	.st19{fill-rule:evenodd;clip-rule:evenodd;fill:#052E5C;}
	.st20{fill:#0B74E5;}
	.st21{fill:#1093D5;}
	.st22{fill:#00B14F;}
	.st23{fill-rule:evenodd;clip-rule:evenodd;fill:#0B74E5;}
	.st24{fill:#0B74E5;stroke:#0B74E5;}
	.st25{fill:#052E5C;}
	.st26{fill:url(#SVGID_6_);}
	.st27{fill:url(#SVGID_7_);}
	.st28{fill:#FF3D00;}
	.st29{fill:#039BE5;}
</style>
<defs>
	<filter id="Adobe_OpacityMaskFilter" filterUnits="userSpaceOnUse" x="0" y="0" width="34" height="23">
		<feColorMatrix  type="matrix" values="1 0 0 0 0  0 1 0 0 0  0 0 1 0 0  0 0 0 1 0"/>
	</filter>
</defs>
<mask maskUnits="userSpaceOnUse" x="0" y="0" width="34" height="23" id="mask0_1329:61134_1_">
	<path class="st0" d="M2.8,2h28.4c1,0,1.8,0.8,1.8,1.8v16.4c0,1-0.8,1.8-1.8,1.8H2.8c-1,0-1.8-0.8-1.8-1.8V3.8C1,2.8,1.8,2,2.8,2z"
		/>
</mask>
<g class="st1">
	<rect class="st2" width="34" height="23"/>
	<path class="st3" d="M10.8,6.7l-2.5,6.5l-1-5.5c-0.1-0.6-0.6-1-1.1-1H1.9L1.9,7c0.9,0.2,1.8,0.5,2.4,0.8C4.7,8,4.8,8.2,4.9,8.6
		l1.9,7.6h2.6l4-9.6H10.8z M14.4,6.7l-2,9.6h2.4l2-9.6H14.4z M28.4,9.3l0.7,3.6h-2L28.4,9.3z M28.1,6.7c-0.5,0-0.9,0.3-1,0.7
		l-3.7,8.9h2.6l0.5-1.4h3.1l0.3,1.4h2.3l-2-9.6H28.1z M17.5,9.7c0,1.4,1.2,2.1,2.1,2.6c1,0.5,1.3,0.8,1.3,1.2c0,0.6-0.8,0.9-1.5,0.9
		c-1.2,0-1.9-0.3-2.5-0.6l-0.4,2.1c0.6,0.3,1.6,0.5,2.7,0.5c2.6,0,4.2-1.3,4.3-3.3c0-2.5-3.4-2.7-3.4-3.8c0-0.3,0.3-0.7,1-0.8
		c0.3,0,1.3-0.1,2.4,0.4l0.4-2c-0.6-0.2-1.3-0.4-2.3-0.4C19.3,6.5,17.6,7.8,17.5,9.7z"/>
</g>
<g>
	<rect x="44.5" y="-0.1" class="st2" width="30" height="20"/>
	<rect x="55.9" y="3.3" class="st4" width="7.2" height="12.9"/>
	<path class="st5" d="M56.4,9.8c0-2.5,1.2-4.9,3.1-6.5c-3.4-2.6-8.2-2.3-11.1,0.9c-2.9,3.1-2.9,8,0,11.2c2.9,3.1,7.7,3.5,11.1,0.9
		C57.5,14.7,56.4,12.3,56.4,9.8z"/>
	<path class="st6" d="M72.8,9.8c0,3.1-1.8,6-4.6,7.4c-2.8,1.4-6.2,1-8.7-0.9c2-1.6,3.1-3.9,3.1-6.5c0-2.5-1.2-4.9-3.1-6.5
		C62,1.4,65.3,1,68.2,2.4C71,3.8,72.8,6.6,72.8,9.8L72.8,9.8z"/>
</g>
<g>
	<rect x="83.4" class="st2" width="32" height="21.3"/>
	<path class="st7" d="M113,16.9c0,2.3-1.9,4.2-4.2,4.2H85.6V4.4c0-2.3,1.9-4.2,4.2-4.2H113V16.9z"/>
	
		<linearGradient id="SVGID_1_" gradientUnits="userSpaceOnUse" x1="103.9497" y1="12.9991" x2="111.4662" y2="12.9991" gradientTransform="matrix(1 0 0 -1 0 24.8235)">
		<stop  offset="0" style="stop-color:#007940"/>
		<stop  offset="0.2285" style="stop-color:#00873F"/>
		<stop  offset="0.7433" style="stop-color:#40A737"/>
		<stop  offset="1" style="stop-color:#5CB531"/>
	</linearGradient>
	<path class="st8" d="M105.4,12.6h1.8c0.1,0,0.2,0,0.2,0c0.3-0.1,0.6-0.4,0.6-0.8c0-0.4-0.3-0.7-0.6-0.8c-0.1,0-0.2,0-0.2,0h-1.8
		V12.6z"/>
	
		<linearGradient id="SVGID_2_" gradientUnits="userSpaceOnUse" x1="103.9498" y1="14.1615" x2="111.4592" y2="14.1615" gradientTransform="matrix(1 0 0 -1 0 24.8235)">
		<stop  offset="0" style="stop-color:#007940"/>
		<stop  offset="0.2285" style="stop-color:#00873F"/>
		<stop  offset="0.7433" style="stop-color:#40A737"/>
		<stop  offset="1" style="stop-color:#5CB531"/>
	</linearGradient>
	<path class="st9" d="M107,1.5c-1.7,0-3,1.4-3,3v3.2h4.3c0.1,0,0.2,0,0.3,0c1,0.1,1.7,0.6,1.7,1.4c0,0.7-0.5,1.3-1.4,1.4v0
		c1,0.1,1.7,0.6,1.7,1.5c0,0.9-0.8,1.5-1.9,1.5h-4.7v6.2h4.5c1.7,0,3-1.4,3-3V1.5H107z"/>
	
		<linearGradient id="SVGID_3_" gradientUnits="userSpaceOnUse" x1="103.9496" y1="15.4409" x2="111.4656" y2="15.4409" gradientTransform="matrix(1 0 0 -1 0 24.8235)">
		<stop  offset="0" style="stop-color:#007940"/>
		<stop  offset="0.2285" style="stop-color:#00873F"/>
		<stop  offset="0.7433" style="stop-color:#40A737"/>
		<stop  offset="1" style="stop-color:#5CB531"/>
	</linearGradient>
	<path class="st10" d="M107.8,9.4c0-0.4-0.3-0.7-0.6-0.7c0,0-0.1,0-0.2,0h-1.6v1.5h1.6c0.1,0,0.2,0,0.2,0
		C107.5,10.1,107.8,9.8,107.8,9.4z"/>
	
		<linearGradient id="SVGID_4_" gradientUnits="userSpaceOnUse" x1="87.1243" y1="14.1699" x2="94.7565" y2="14.1699" gradientTransform="matrix(1 0 0 -1 0 24.8235)">
		<stop  offset="0" style="stop-color:#1F286F"/>
		<stop  offset="0.4751" style="stop-color:#004E94"/>
		<stop  offset="0.8261" style="stop-color:#0066B1"/>
		<stop  offset="1" style="stop-color:#006FBC"/>
	</linearGradient>
	<path class="st11" d="M90.2,1.5c-1.7,0-3,1.4-3,3v7.5c0.9,0.4,1.7,0.7,2.6,0.7c1.1,0,1.6-0.6,1.6-1.5V7.7H94v3.5
		c0,1.4-0.9,2.5-3.7,2.5c-1.8,0-3.1-0.4-3.1-0.4v6.4h4.5c1.7,0,3-1.4,3-3V1.5H90.2z"/>
	
		<linearGradient id="SVGID_5_" gradientUnits="userSpaceOnUse" x1="95.4971" y1="14.1531" x2="102.9094" y2="14.1531" gradientTransform="matrix(1 0 0 -1 0 24.8235)">
		<stop  offset="0" style="stop-color:#6C2C2F"/>
		<stop  offset="0.1735" style="stop-color:#882730"/>
		<stop  offset="0.5731" style="stop-color:#BE1833"/>
		<stop  offset="0.8585" style="stop-color:#DC0436"/>
		<stop  offset="1" style="stop-color:#E60039"/>
	</linearGradient>
	<path class="st12" d="M98.6,1.5c-1.7,0-3,1.4-3,3v4c0.8-0.7,2.1-1.1,4.3-1c1.2,0.1,2.4,0.4,2.4,0.4v1.3c-0.6-0.3-1.4-0.6-2.3-0.7
		c-1.6-0.1-2.6,0.7-2.6,2.1c0,1.4,1,2.2,2.6,2.1c1-0.1,1.7-0.4,2.3-0.7v1.3c0,0-1.2,0.3-2.4,0.4c-2.2,0.1-3.5-0.3-4.3-1v7h4.5
		c1.7,0,3-1.4,3-3V1.5H98.6z"/>
</g>
<defs>
	<filter id="Adobe_OpacityMaskFilter_1_" filterUnits="userSpaceOnUse" x="0.4" y="23.6" width="26" height="26">
		<feColorMatrix  type="matrix" values="1 0 0 0 0  0 1 0 0 0  0 0 1 0 0  0 0 0 1 0"/>
	</filter>
</defs>
<mask maskUnits="userSpaceOnUse" x="0.4" y="23.6" width="26" height="26" id="mask0_2_">
	<path class="st13" d="M8.1,23.6h10.6c2.7,0,3.6,0.3,4.6,0.8c1,0.5,1.7,1.3,2.3,2.3c0.5,1,0.8,1.9,0.8,4.6v10.6
		c0,2.7-0.3,3.6-0.8,4.6c-0.5,1-1.3,1.7-2.3,2.3c-1,0.5-1.9,0.8-4.6,0.8H8.1c-2.7,0-3.6-0.3-4.6-0.8c-1-0.5-1.7-1.3-2.3-2.3
		c-0.5-1-0.8-1.9-0.8-4.6V31.3c0-2.7,0.3-3.6,0.8-4.6c0.5-1,1.3-1.7,2.3-2.3C4.4,23.9,5.4,23.6,8.1,23.6z"/>
</mask>
<g class="st14">
	<path class="st15" d="M8.1,23.6h10.6c2.7,0,3.6,0.3,4.6,0.8c1,0.5,1.7,1.3,2.3,2.3c0.5,1,0.8,1.9,0.8,4.6v10.6
		c0,2.7-0.3,3.6-0.8,4.6c-0.5,1-1.3,1.7-2.3,2.3c-1,0.5-1.9,0.8-4.6,0.8H8.1c-2.7,0-3.6-0.3-4.6-0.8c-1-0.5-1.7-1.3-2.3-2.3
		c-0.5-1-0.8-1.9-0.8-4.6V31.3c0-2.7,0.3-3.6,0.8-4.6c0.5-1,1.3-1.7,2.3-2.3C4.4,23.9,5.4,23.6,8.1,23.6z"/>
	<path class="st7" d="M18.5,28.6c-2.1,0-3.8,1.6-3.8,3.6c0,2,1.7,3.6,3.8,3.6c2.1,0,3.8-1.6,3.8-3.6C22.4,30.2,20.7,28.6,18.5,28.6z
		 M18.5,33.8c-0.9,0-1.6-0.7-1.6-1.5c0-0.8,0.7-1.5,1.6-1.5c0.9,0,1.6,0.7,1.6,1.5C20.2,33.1,19.4,33.8,18.5,33.8L18.5,33.8z
		 M13.6,35.8h-2.2v-4.5c0-0.3-0.3-0.6-0.7-0.6c-0.4,0-0.7,0.3-0.7,0.6v4.5H7.9v-4.5c0-0.3-0.3-0.6-0.7-0.6c-0.4,0-0.7,0.3-0.7,0.6
		v4.5H4.4v-4.5c0-1.5,1.3-2.7,2.9-2.7c0.7,0,1.2,0.2,1.7,0.5c0.6-0.4,1.1-0.5,1.7-0.5c1.6,0,2.9,1.2,2.9,2.7V35.8z M18.5,37.4
		c-2.1,0-3.8,1.6-3.8,3.6c0,2,1.7,3.6,3.8,3.6c2.1,0,3.8-1.6,3.8-3.6C22.4,39,20.7,37.4,18.5,37.4L18.5,37.4z M10.7,37.4
		c1.6,0,2.9,1.2,2.9,2.7v4.5h-2.2v-4.5c0-0.3-0.3-0.6-0.7-0.6c-0.4,0-0.7,0.3-0.7,0.6v4.5H7.9v-4.5c0-0.3-0.3-0.6-0.7-0.6
		c-0.4,0-0.7,0.3-0.7,0.6v4.5H4.4v-4.5c0-1.5,1.3-2.7,2.9-2.7c0.7,0,1.2,0.2,1.7,0.5C9.5,37.6,10.1,37.4,10.7,37.4z M18.5,39.5
		c0.9,0,1.6,0.7,1.6,1.5c0,0.8-0.7,1.5-1.6,1.5c-0.9,0-1.6-0.7-1.6-1.5C16.9,40.2,17.6,39.5,18.5,39.5z"/>
</g>
<g>
	<path class="st16" d="M49.7,27.9l19.1-2.8c-1.1-0.9-2.5-1.5-4-1.5H50.9c-3.4,0-6.1,2.7-6.1,6.1v13.9c0,3,2.2,5.5,5.1,6L47.4,31
		C47.2,29.5,48.2,28.1,49.7,27.9z"/>
	<path class="st7" d="M68.8,25.1l-19.1,2.8c-1.5,0.2-2.5,1.6-2.3,3.1l2.5,18.6c0.3,0,0.7,0.1,1,0.1h13.9c3.4,0,6.1-2.7,6.1-6.1V29.7
		C70.9,27.8,70.1,26.2,68.8,25.1z"/>
	<path class="st17" d="M68.8,25.1L68.8,25.1c1.2,1.2,2,2.8,2,4.6v13.9c0,3.3-2.7,6-6,6H50.9c-0.3,0-0.7,0-1-0.1l0,0.1
		c0.3,0.1,0.7,0.1,1,0.1h13.9c3.4,0,6.1-2.7,6.1-6.1V29.7C70.9,27.9,70.1,26.3,68.8,25.1z"/>
	<path class="st16" d="M61.1,32.2c-0.1-0.1-0.3-0.2-0.5-0.2c-0.3,0-0.5,0.1-0.6,0.4C59.8,32.1,59.4,32,59,32c-0.5,0-1,0.2-1.4,0.6
		c-0.4,0.4-0.5,0.9-0.5,1.5c0,0.6,0.2,1.1,0.5,1.5c0.4,0.4,0.8,0.6,1.4,0.6c0.5,0,0.8-0.1,1.1-0.5c0.1,0.3,0.3,0.4,0.6,0.4
		c0.2,0,0.3-0.1,0.5-0.2c0.1-0.1,0.2-0.3,0.2-0.5v-2.9C61.2,32.5,61.2,32.4,61.1,32.2z M59.8,34.9c-0.1,0.2-0.4,0.3-0.6,0.3
		c-0.3,0-0.5-0.1-0.6-0.3c-0.1-0.2-0.2-0.4-0.2-0.7c0-0.3,0.1-0.5,0.2-0.7c0.1-0.2,0.4-0.3,0.6-0.3c0.3,0,0.5,0.1,0.6,0.3
		c0.1,0.2,0.2,0.4,0.2,0.7C60,34.4,59.9,34.7,59.8,34.9z"/>
	<path class="st16" d="M62.6,36c-0.1,0.1-0.3,0.2-0.5,0.2c-0.2,0-0.3-0.1-0.5-0.2c-0.1-0.1-0.2-0.3-0.2-0.5v-5.2
		c0-0.2,0-0.3,0.2-0.5c0.1-0.1,0.3-0.2,0.5-0.2c0.2,0,0.3,0.1,0.5,0.2c0.1,0.1,0.2,0.3,0.2,0.5v5.2C62.8,35.8,62.8,35.9,62.6,36z"/>
	<path class="st16" d="M66.7,32.6c-0.4-0.4-0.9-0.6-1.5-0.6c-0.6,0-1.1,0.2-1.5,0.6c-0.4,0.4-0.6,0.9-0.6,1.5c0,0.6,0.2,1.1,0.6,1.5
		c0.4,0.4,0.9,0.6,1.5,0.6c0.6,0,1.1-0.2,1.5-0.6c0.4-0.4,0.6-0.9,0.6-1.5C67.3,33.5,67.1,33,66.7,32.6z M65.9,34.9
		c-0.1,0.2-0.4,0.3-0.6,0.3c-0.3,0-0.5-0.1-0.6-0.3c-0.1-0.2-0.2-0.4-0.2-0.7c0-0.3,0.1-0.5,0.2-0.7c0.1-0.2,0.4-0.3,0.6-0.3
		c0.3,0,0.5,0.1,0.6,0.3c0.1,0.2,0.2,0.4,0.2,0.7C66.1,34.4,66,34.7,65.9,34.9z"/>
	<path class="st16" d="M56.4,32.1c0.4-0.6,0.7-0.9,0.7-1.1c0-0.5-0.3-0.7-0.9-0.7h-3c-0.2,0-0.4,0-0.5,0.2c-0.1,0.1-0.2,0.3-0.2,0.4
		c0,0.2,0.1,0.3,0.2,0.4c0.1,0.1,0.3,0.2,0.5,0.2h2.1l-2.6,3.4c-0.2,0.2-0.3,0.4-0.3,0.6c0,0.5,0.3,0.7,1,0.7h3.1
		c0.5,0,0.7-0.2,0.7-0.6c0-0.4-0.2-0.6-0.7-0.6h-2.3L56.4,32.1z"/>
	<path class="st18" d="M54.9,39.5h-0.8v1.6h0.8c0.2,0,0.4-0.1,0.6-0.2c0.1-0.1,0.2-0.4,0.2-0.6c0-0.2-0.1-0.4-0.2-0.6
		C55.3,39.6,55.2,39.5,54.9,39.5z"/>
	<path class="st18" d="M58.8,41c-0.2,0-0.4,0.1-0.6,0.3c-0.1,0.2-0.2,0.4-0.2,0.7s0.1,0.5,0.2,0.7c0.1,0.2,0.3,0.3,0.6,0.3
		c0.2,0,0.4-0.1,0.6-0.3c0.1-0.2,0.2-0.4,0.2-0.7c0-0.3-0.1-0.5-0.2-0.7C59.2,41.1,59,41,58.8,41z"/>
	<path class="st18" d="M64.2,37.2H53c-0.4,0-0.7,0.3-0.7,0.7v6.5c0,0.4,0.3,0.7,0.7,0.7h8.8c-0.1-0.1-0.1-0.2-0.1-0.3
		c0-0.1,0-0.2,0.1-0.3l0.4-0.9L61,40.7c0-0.1,0-0.2,0-0.3c0-0.1,0-0.2,0.2-0.3c0.1-0.1,0.2-0.1,0.3-0.1c0.3,0,0.4,0.1,0.5,0.4l0.7,2
		l0.8-2c0.1-0.2,0.3-0.4,0.5-0.4c0.1,0,0.2,0,0.3,0.1c0.1,0.1,0.2,0.2,0.2,0.3c0,0.1,0,0.2-0.1,0.3l-1.7,4.1
		c-0.1,0.1-0.1,0.2-0.2,0.3h1.6c0.4,0,0.7-0.3,0.7-0.7v-6.5C64.9,37.5,64.6,37.2,64.2,37.2z M56.3,41.6c-0.4,0.3-0.8,0.5-1.3,0.5
		h-0.9v1.2c0,0.2-0.1,0.3-0.2,0.4c-0.1,0.1-0.2,0.2-0.4,0.2c-0.2,0-0.3-0.1-0.4-0.2c-0.1-0.1-0.2-0.3-0.2-0.4v-4.3
		c0-0.4,0.2-0.6,0.6-0.6H55c0.6,0,1,0.2,1.4,0.5c0.4,0.3,0.5,0.8,0.5,1.3C56.9,40.8,56.7,41.3,56.3,41.6z M60.7,43.3
		c0,0.2,0,0.3-0.2,0.4c-0.1,0.1-0.2,0.2-0.4,0.2c-0.2,0-0.4-0.1-0.5-0.4c-0.2,0.3-0.6,0.4-1,0.4c-0.5,0-0.9-0.2-1.3-0.6
		c-0.3-0.4-0.5-0.9-0.5-1.4c0-0.6,0.2-1,0.5-1.4c0.3-0.4,0.8-0.6,1.3-0.6c0.4,0,0.7,0.1,1,0.4c0.1-0.2,0.3-0.4,0.5-0.4
		c0.2,0,0.3,0,0.4,0.2c0.1,0.1,0.2,0.2,0.2,0.4V43.3z"/>
</g>
<g>
	<path class="st19" d="M87.4,25.8c0.9,0,1.6,0.7,1.6,1.6v0.3h7.9c1.1,0,1.7,0.3,2.6,1.5l1.6,2.2h14.4c1,0,1.7,0.8,1.7,1.8v11.5
		c0,1-0.8,1.8-1.7,1.8H96.4c-1,0-1.7-0.8-1.7-1.8v-5.3h-1.4c-0.8,0-1.6-0.4-2.3-1c-0.2-0.1-0.3-0.3-0.5-0.4l-0.3-0.3l-0.1-0.1
		l-1.2,0c-0.2,0.7-0.8,1.3-1.6,1.3h-0.6c-0.9,0-1.6-0.7-1.6-1.6v-10c0-0.9,0.7-1.6,1.6-1.6H87.4z M89,36.7h1.6l0.2,0.2l0.1,0.1
		c0,0,0,0.1,0.1,0.1c0.2,0.2,0.4,0.4,0.6,0.6c0.5,0.4,1.1,0.7,1.6,0.8l0.2,0h1.4v-2.6l-0.6,0c-1,0-1.8-0.4-2.2-1l-0.1-0.1
		c-0.2-0.4-0.3-0.8-0.4-1.2l0-0.2h0.9c0,0.3,0.1,0.6,0.2,0.9c0.2,0.4,0.6,0.6,1.3,0.7l0.2,0h1.8l1.5,1.3c0.5,0.4,1.3,0.4,2,0.1
		c0.5-0.2,0.6-0.5,0.5-0.6l-3.2-2.9l0-1.2v-0.2h3.4l-1.2-1.7c-0.7-1-1-1.2-1.9-1.2H89V36.7z M87.4,26.6h-0.6c-0.4,0-0.7,0.3-0.8,0.7
		l0,0.1v10c0,0.4,0.3,0.7,0.7,0.8l0.1,0h0.6c0.4,0,0.7-0.3,0.8-0.7l0-0.1v-10C88.2,26.9,87.9,26.6,87.4,26.6L87.4,26.6z M95.6,44.6
		V36l1.1,1l0.2,0.1c0.9,0.5,1.9,0.5,2.8,0.1c1-0.5,1.5-1.4,0.7-2.2l-3-2.7h18c0.5,0,0.9,0.4,0.9,0.9v11.4c0,0.5-0.4,0.9-0.9,0.9h-19
		C96,45.5,95.6,45.1,95.6,44.6z"/>
	<circle class="st20" cx="105.9" cy="38.9" r="4.7"/>
	<path class="st7" d="M106.8,38.8l-1.5-0.4c-0.2-0.1-0.4-0.2-0.4-0.4c0-0.2,0.2-0.5,0.5-0.5h1c0.2,0,0.4,0.1,0.6,0.2
		c0.1,0,0.2,0,0.3,0l0.3-0.3c0.1-0.1,0.1-0.2,0-0.3c-0.3-0.2-0.7-0.3-1.1-0.3h0v-0.5c0-0.1-0.1-0.2-0.2-0.2h-0.4
		c-0.1,0-0.2,0.1-0.2,0.2v0.5h-0.1c-0.8,0-1.4,0.6-1.4,1.3c0.1,0.5,0.5,0.9,1.1,1l1.5,0.4c0.2,0.1,0.4,0.2,0.4,0.4
		c0,0.2-0.2,0.5-0.5,0.5h-1c-0.2,0-0.4-0.1-0.6-0.2c-0.1,0-0.2,0-0.3,0l-0.3,0.3c-0.1,0.1-0.1,0.2,0,0.3c0.3,0.2,0.7,0.3,1.1,0.3h0
		v0.5c0,0.1,0.1,0.2,0.2,0.2h0.4c0.1,0,0.2-0.1,0.2-0.2v-0.5h0c0.6,0,1.2-0.3,1.4-0.8C108,39.6,107.5,39,106.8,38.8z"/>
</g>
<g>
	<g>
		<path class="st19" d="M29,63.6c0-1.5-1.2-2.7-2.7-2.7H3.7c-1.5,0-2.7,1.2-2.7,2.7v12.6c0,1.5,1.2,2.7,2.7,2.7h22.6
			c1.5,0,2.7-1.2,2.7-2.7V63.6z M3.7,61.9h22.6l0.1,0c0.9,0.1,1.5,0.8,1.5,1.7v12.6l0,0.1c-0.1,0.9-0.8,1.5-1.7,1.5H3.7l-0.1,0
			C2.7,77.8,2,77.1,2,76.2V63.6l0-0.1C2.1,62.5,2.8,61.9,3.7,61.9z"/>
		<path class="st19" d="M7.7,73.5l-0.5,1.6H6l2.2-6.2h1.3l2.2,6.2h-1.2L10,73.5H7.7z M7.9,72.6h1.8L8.8,70h0L7.9,72.6z M15,75.1
			v-5.3h1.9v-0.9H12v0.9h1.9v5.3H15z M18.6,70.7v4.4h-1v-6.2h1.3l1.9,4.7h0l1.9-4.7H24v6.2h-1v-4.4h0l-1.8,4.4h-0.8L18.6,70.7
			L18.6,70.7z"/>
	</g>
	<path class="st20" d="M22,63.9h3c0.6,0,1,0.4,1,1v1c0,0.6-0.4,1-1,1h-3c-0.6,0-1-0.4-1-1v-1C21,64.3,21.4,63.9,22,63.9z"/>
</g>
<g>
	<path class="st21" d="M68.8,59.5H44.9v23.9h23.9V59.5z"/>
	<path class="st7" d="M51.9,64.3c-0.6,0-1,0.2-1.2,0.7c-0.3-0.5-0.6-0.7-1.2-0.7c-0.5,0-0.9,0.2-1.2,0.6v-0.2c0-0.3-0.2-0.5-0.5-0.5
		l-0.7,0l0,4.1c0,0.3,0.2,0.5,0.5,0.5l0.7,0l0-2.9c0-0.4,0.3-0.7,0.7-0.7c0.4,0,0.7,0.3,0.7,0.7l0,2.4c0,0.3,0.2,0.5,0.5,0.5l0.7,0
		l0-2.9c0-0.4,0.3-0.7,0.7-0.7c0.4,0,0.7,0.3,0.7,0.7l0,2.4c0,0.3,0.2,0.5,0.5,0.5l0.7,0l0-3.1C53.4,65,52.8,64.3,51.9,64.3z"/>
	<path class="st7" d="M61.8,64.6c-0.4-0.2-0.8-0.3-1.2-0.3c-1.9,0-2.3,1-2.3,2.3c0,1.2,0.3,2.3,2.3,2.3c0.4,0,0.9-0.1,1.3-0.2
		c0,0,0.1,0,0.1-0.1c0,0-0.1-0.7-0.1-0.7c0,0,0-0.1-0.1-0.1C61.4,68,61,68,60.6,68c-1,0-1.2-0.6-1.2-1.4c0-0.8,0.1-1.4,1.2-1.4
		c0.6,0,1.3,0.3,1.3,0.3c0,0,0.1,0,0.1-0.1c0,0,0,0,0,0C62,65.4,61.9,64.7,61.8,64.6C61.9,64.7,61.9,64.6,61.8,64.6z"/>
	<path class="st7" d="M66.1,64.4l-0.5,0l0,0.4c-0.3-0.3-0.7-0.4-1.1-0.4c-1.3,0-2.2,0.7-2.2,2.3c0,1.6,0.9,2.3,2.2,2.3
		c0.6,0,1-0.2,1.1-0.4c0,0.2,0.2,0.4,0.5,0.4l0.5,0l0-4.1C66.6,64.6,66.4,64.4,66.1,64.4z M64.4,68c-0.9,0-1.1-0.5-1.1-1.4
		c0-0.9,0.3-1.4,1.1-1.4c0.9,0,1.1,0.5,1.1,1.4C65.6,67.5,65.3,68,64.4,68z"/>
	<path class="st7" d="M55.9,64.4c-1.3,0-2.2,0.7-2.2,2.3c0,1.6,0.9,2.3,2.2,2.3c1.3,0,2.2-0.7,2.2-2.3
		C58.1,65.1,57.2,64.4,55.9,64.4z M55.9,68c-0.9,0-1.1-0.5-1.1-1.4c0-0.9,0.3-1.4,1.1-1.4c0.9,0,1.1,0.5,1.1,1.4
		C57,67.5,56.8,68,55.9,68z"/>
	<path class="st22" d="M68.8,83.4H44.9V72.8h23.9V83.4z"/>
	<path class="st7" d="M49.9,78c0,1.1,0.8,1.9,1.9,1.9c1,0,1.5-0.7,1.5-1.4v-0.3h-1.5v0.4h1.1c0,0.4-0.4,0.9-1.1,0.9
		c-0.9,0-1.5-0.6-1.5-1.5c0-0.9,0.6-1.5,1.5-1.5c0.6,0,1,0.1,1.5,0.4l0,0v-0.4c-0.3-0.2-0.8-0.4-1.5-0.4
		C50.7,76.1,49.9,76.9,49.9,78z M49.3,78c0,1.4,1.1,2.5,2.5,2.5c1.3,0,2.1-0.8,2.1-2.2v-0.7h-2.1v0.4h1.7v0.4c0,1-0.6,1.7-1.7,1.7
		c-1.2,0-2.1-0.9-2.1-2.1c0-1.2,0.9-2.1,2.1-2.1c0.6,0,1.1,0.1,1.5,0.4v-0.4c-0.4-0.3-0.9-0.4-1.5-0.4C50.4,75.5,49.3,76.6,49.3,78z
		 M54.7,78.4v2.1h0.4v-2.1c0-0.5,0.3-0.8,0.7-0.8c0.1,0,0.3,0,0.4,0.1c0.1-0.1,0.1-0.2,0.2-0.3c-0.1-0.1-0.3-0.2-0.5-0.2
		C55.2,77.2,54.7,77.7,54.7,78.4z M54.2,80.4h0.4v-2.1c0-0.8,0.5-1.4,1.3-1.4c0.3,0,0.5,0.1,0.7,0.2c0.1-0.1,0.2-0.2,0.3-0.3
		c-0.2-0.2-0.6-0.3-0.9-0.3c-1,0-1.7,0.7-1.7,1.8L54.2,80.4L54.2,80.4z M60.3,78.1v0.6c0.2-0.3,0.4-0.6,0.6-0.8
		c0.5-0.6,0.9-0.9,1.5-0.9c0.9,0,1.5,0.7,1.5,1.6c0,0.9-0.6,1.6-1.5,1.6c-0.7,0-1.3-0.5-1.4-1.1l-0.3,0.4c0.2,0.6,0.9,1.1,1.7,1.1
		c1.1,0,1.9-0.9,1.9-2c0-1.1-0.8-2-1.9-2C61.4,76.6,60.8,77.4,60.3,78.1z M61.6,78.4L61.6,78.4l-0.3,0.4c0.1,0.5,0.5,1.1,1.3,1.1
		c0.7,0,1.3-0.6,1.3-1.4c0-0.8-0.6-1.4-1.3-1.4c-0.7,0-1.2,0.5-1.5,0.9c-0.1,0.2-0.4,0.5-0.7,0.9v0.6c0.3-0.4,0.6-0.8,0.9-1.2
		c0.4-0.5,0.7-0.9,1.3-0.9c0.5,0,0.9,0.4,0.9,1c0,0.6-0.4,1-0.9,1C62,79.6,61.6,79,61.6,78.4L61.6,78.4L61.6,78.4z M61.2,75.2v1.7
		c0.1-0.1,0.3-0.2,0.4-0.3v-1.4H61.2z M60.6,77.4c0.1-0.2,0.3-0.3,0.4-0.5v-1.8h-0.4V77.4z M59,79.3L59,79.3
		c-0.2,0.1-0.4,0.2-0.7,0.2c-0.5,0-0.9-0.4-0.9-1c0-0.6,0.4-1,0.9-1c0.6,0,0.9,0.4,0.9,1v1.9h0.4v-1.9c0-0.8-0.5-1.3-1.3-1.3
		c-0.8,0-1.3,0.6-1.3,1.4c0,0.8,0.6,1.4,1.3,1.4c0.3,0,0.6-0.1,0.7-0.2V79.3z M56.3,78.5c0,1.2,0.8,2,1.9,2c0.2,0,0.5-0.1,0.7-0.2
		v-0.4c-0.1,0.1-0.4,0.2-0.7,0.2c-0.9,0-1.5-0.6-1.5-1.6c0-0.9,0.7-1.6,1.5-1.6c0.9,0,1.5,0.6,1.5,1.5v1.9h0.4v-1.9
		c0-1.1-0.8-1.9-1.9-1.9C57.2,76.6,56.3,77.4,56.3,78.5z"/>
</g>
<g>
	<path class="st19" d="M90.7,66.3c0-4.9,4-8.9,9-8.9c4.9,0,9,4,9,8.9s-4,8.9-9,8.9C94.7,75.2,90.7,71.2,90.7,66.3z M99.7,58.2
		c-4.5,0-8.1,3.6-8.1,8.1c0,4.4,3.6,8.1,8.1,8.1c4.5,0,8.1-3.6,8.1-8.1C107.8,61.8,104.2,58.2,99.7,58.2z"/>
	<path class="st23" d="M105.2,63.9c0.2,0.2,0.2,0.4,0,0.6l-4.2,4.1c-0.2,0.2-0.4,0.2-0.6,0c-0.2-0.2-0.2-0.4,0-0.6l4.2-4.1
		C104.8,63.7,105,63.7,105.2,63.9z"/>
	<path class="st24" d="M101.9,64.2c0,0.3-0.3,0.6-0.6,0.6s-0.6-0.3-0.6-0.6c0-0.3,0.3-0.6,0.6-0.6S101.9,63.9,101.9,64.2z"/>
	<path class="st24" d="M105,68.3c0,0.3-0.3,0.6-0.6,0.6c-0.3,0-0.6-0.3-0.6-0.6c0-0.3,0.3-0.6,0.6-0.6C104.7,67.7,105,68,105,68.3z"
		/>
	<path class="st23" d="M95.3,64.4c-0.3,0.5-0.4,1.2-0.4,1.9c0,0.6,0.1,1.4,0.4,1.9c0.3,0.5,0.7,0.8,1.3,0.8c0.6,0,1-0.3,1.3-0.8
		c0.3-0.5,0.4-1.2,0.4-1.9c0-0.6-0.1-1.4-0.4-1.9c-0.3-0.5-0.7-0.8-1.3-0.8C96,63.6,95.6,63.9,95.3,64.4z M94.5,64
		c0.4-0.7,1-1.3,2-1.3c1,0,1.6,0.6,2,1.3c0.4,0.7,0.5,1.5,0.5,2.3c0,0.7-0.1,1.6-0.5,2.3c-0.4,0.7-1,1.3-2,1.3c-1,0-1.6-0.6-2-1.3
		c-0.4-0.7-0.5-1.5-0.5-2.3C94.1,65.5,94.2,64.7,94.5,64z"/>
	<path class="st25" d="M89.8,79.5h-1.5v4.1h-0.8v-4.1H86v-0.7h3.8V79.5z"/>
	<path class="st25" d="M92.2,81.8h-0.9v1.8h-0.8v-4.7h1.7c0.5,0,1,0.1,1.3,0.4c0.3,0.2,0.4,0.6,0.4,1.1c0,0.3-0.1,0.6-0.2,0.8
		c-0.2,0.2-0.4,0.4-0.6,0.5l1.1,2v0h-0.9L92.2,81.8z M91.2,81.1h0.8c0.3,0,0.5-0.1,0.7-0.2c0.2-0.1,0.2-0.3,0.2-0.6
		c0-0.3-0.1-0.4-0.2-0.6c-0.1-0.1-0.4-0.2-0.6-0.2h-0.9V81.1z"/>
	<path class="st25" d="M97.2,82.5h-1.8L95,83.6h-0.9l1.8-4.7h0.7l1.8,4.7h-0.9L97.2,82.5z M95.6,81.8H97l-0.7-2L95.6,81.8z M96,78.5
		l0-0.5c0.2,0,0.3,0,0.3-0.1c0.1,0,0.1-0.1,0.1-0.2c0-0.2-0.2-0.2-0.5-0.2l0-0.4c0.4,0,0.6,0.1,0.8,0.2c0.2,0.1,0.3,0.3,0.3,0.5
		c0,0.1,0,0.2-0.1,0.3c-0.1,0.1-0.2,0.1-0.4,0.2v0.2H96z"/>
	<path class="st25" d="M104.3,83c-0.2,0.2-0.4,0.4-0.7,0.5c-0.3,0.1-0.6,0.2-1,0.2c-0.4,0-0.7-0.1-1.1-0.3c-0.3-0.2-0.5-0.4-0.7-0.8
		c-0.2-0.3-0.3-0.7-0.3-1.2v-0.4c0-0.7,0.2-1.3,0.5-1.7c0.3-0.4,0.8-0.6,1.4-0.6c0.5,0,0.9,0.1,1.3,0.4c0.3,0.3,0.5,0.6,0.6,1.1
		h-0.8c-0.1-0.6-0.4-0.9-1-0.9c-0.4,0-0.6,0.1-0.8,0.4c-0.2,0.3-0.3,0.7-0.3,1.2v0.4c0,0.5,0.1,0.9,0.3,1.2c0.2,0.3,0.5,0.4,0.9,0.4
		c0.4,0,0.7-0.1,0.9-0.3v-0.9h-1v-0.6h1.8V83z"/>
	<path class="st25" d="M109,81.4c0,0.5-0.1,0.9-0.2,1.2c-0.2,0.3-0.4,0.6-0.7,0.8c-0.3,0.2-0.6,0.3-1,0.3c-0.4,0-0.7-0.1-1-0.3
		c-0.3-0.2-0.5-0.5-0.7-0.8c-0.2-0.3-0.2-0.7-0.2-1.2v-0.3c0-0.5,0.1-0.9,0.2-1.2c0.2-0.4,0.4-0.6,0.7-0.8c0.3-0.2,0.6-0.3,1-0.3
		s0.7,0.1,1,0.3c0.3,0.2,0.5,0.4,0.7,0.8c0.2,0.3,0.2,0.7,0.2,1.2V81.4z M108.1,81.1c0-0.5-0.1-0.9-0.3-1.2
		c-0.2-0.3-0.5-0.4-0.8-0.4c-0.4,0-0.6,0.1-0.8,0.4c-0.2,0.3-0.3,0.7-0.3,1.2v0.3c0,0.5,0.1,0.9,0.3,1.2c0.2,0.3,0.5,0.4,0.8,0.4
		c0.4,0,0.6-0.1,0.8-0.4c0.2-0.3,0.3-0.7,0.3-1.2V81.1z M107.2,77.6h0.9l-0.9,1h-0.6L107.2,77.6z"/>
	<path class="st25" d="M110.6,81.8v1.8h-0.8v-4.7h1.8c0.5,0,0.9,0.1,1.3,0.4c0.3,0.3,0.5,0.6,0.5,1.1c0,0.5-0.2,0.8-0.5,1.1
		c-0.3,0.3-0.7,0.4-1.3,0.4H110.6z M110.6,81.2h1c0.3,0,0.5-0.1,0.7-0.2c0.2-0.1,0.2-0.3,0.2-0.6c0-0.3-0.1-0.5-0.2-0.6
		c-0.2-0.2-0.4-0.2-0.6-0.2h-1V81.2z"/>
</g>
<g>
	
		<radialGradient id="SVGID_6_" cx="43.3115" cy="-87.8002" r="23.2171" gradientTransform="matrix(1 0 0 -1 0 24.8235)" gradientUnits="userSpaceOnUse">
		<stop  offset="0" style="stop-color:#FFDD55"/>
		<stop  offset="0.328" style="stop-color:#FF543F"/>
		<stop  offset="0.348" style="stop-color:#FC5245"/>
		<stop  offset="0.504" style="stop-color:#E64771"/>
		<stop  offset="0.643" style="stop-color:#D53E91"/>
		<stop  offset="0.761" style="stop-color:#CC39A4"/>
		<stop  offset="0.841" style="stop-color:#C837AB"/>
	</radialGradient>
	<path class="st26" d="M50.9,112.6l-10.3,0c-2.3,0-4.1-1.9-4.1-4.1l0-10.3c0-2.3,1.9-4.1,4.1-4.1l10.3,0c2.3,0,4.1,1.9,4.1,4.1
		l0,10.3C55,110.7,53.2,112.6,50.9,112.6z"/>
	
		<radialGradient id="SVGID_7_" cx="39.3847" cy="-182.0153" r="15.4162" gradientTransform="matrix(1 0 0 -0.6663 0 -27.5243)" gradientUnits="userSpaceOnUse">
		<stop  offset="0" style="stop-color:#4168C9"/>
		<stop  offset="0.999" style="stop-color:#4168C9;stop-opacity:0"/>
	</radialGradient>
	<path class="st27" d="M50.9,112.6l-10.3,0c-2.3,0-4.1-1.9-4.1-4.1l0-10.3c0-2.3,1.9-4.1,4.1-4.1l10.3,0c2.3,0,4.1,1.9,4.1,4.1
		l0,10.3C55,110.7,53.2,112.6,50.9,112.6z"/>
	<path class="st7" d="M45.7,106.9c-2,0-3.6-1.6-3.6-3.6c0-2,1.6-3.6,3.6-3.6s3.6,1.6,3.6,3.6C49.3,105.3,47.7,106.9,45.7,106.9z
		 M45.7,100.7c-1.4,0-2.6,1.2-2.6,2.6c0,1.4,1.2,2.6,2.6,2.6s2.6-1.2,2.6-2.6C48.3,101.9,47.1,100.7,45.7,100.7z"/>
	<circle class="st7" cx="49.6" cy="99.4" r="0.8"/>
	<path class="st7" d="M48.8,110h-6.2c-2,0-3.6-1.6-3.6-3.6v-6.2c0-2,1.6-3.6,3.6-3.6h6.2c2,0,3.6,1.6,3.6,3.6v6.2
		C52.4,108.4,50.8,110,48.8,110z M42.6,97.6c-1.4,0-2.6,1.2-2.6,2.6v6.2c0,1.4,1.2,2.6,2.6,2.6h6.2c1.4,0,2.6-1.2,2.6-2.6v-6.2
		c0-1.4-1.2-2.6-2.6-2.6H42.6z"/>
</g>
<g>
	<path class="st28" d="M91.9,108.6c-0.2,1.2-1.2,2.1-2.3,2.2c-1.8,0.3-4.9,0.6-8.4,0.6c-3.4,0-6.5-0.3-8.4-0.6
		c-1.2-0.2-2.1-1.1-2.3-2.2c-0.2-1.3-0.4-3.2-0.4-5.5c0-2.3,0.2-4.2,0.4-5.5c0.2-1.2,1.2-2.1,2.3-2.2c1.8-0.3,4.9-0.6,8.4-0.6
		c3.5,0,6.5,0.3,8.4,0.6c1.2,0.2,2.1,1.1,2.3,2.2c0.2,1.3,0.5,3.2,0.5,5.5C92.3,105.5,92.1,107.4,91.9,108.6z"/>
	<path class="st7" d="M79,107v-7.8l6.7,3.9L79,107z"/>
</g>
<g>
	<path class="st29" d="M10.7,93.5c-5.3,0-9.7,4.3-9.7,9.7s4.3,9.7,9.7,9.7s9.7-4.3,9.7-9.7S16,93.5,10.7,93.5z"/>
	<path class="st7" d="M12,105.7h2.5l0.4-2.5H12v-1.4c0-1.1,0.3-2,1.3-2h1.6v-2.2c-0.3,0-0.9-0.1-2-0.1c-2.3,0-3.7,1.2-3.7,4v1.7H6.8
		v2.5h2.4v7c0.5,0.1,1,0.1,1.4,0.1c0.4,0,0.9,0,1.3-0.1V105.7z"/>
</g>
</svg>
